<?xml version="1.0" encoding="utf-8"?>
<!-- Generator: Adobe Illustrator 16.0.0, SVG Export Plug-In . SVG Version: 6.00 Build 0)  -->
<!DOCTYPE svg PUBLIC "-//W3C//DTD SVG 1.1//EN" "http://www.w3.org/Graphics/SVG/1.1/DTD/svg11.dtd">
<svg version="1.1" id="Layer_1" xmlns="http://www.w3.org/2000/svg" xmlns:xlink="http://www.w3.org/1999/xlink" x="0px" y="0px"
	 width="160px" height="160px" viewBox="0 0 160 160" enable-background="new 0 0 160 160" xml:space="preserve">
<path fill="#FFFFFF" d="M143.9,160H16.4c-0.1,0-0.2-0.1-0.3-0.1c-4.1-0.6-7.6-2.3-10.5-5.2c-3-3-4.8-6.6-5.3-10.8
	c0-0.3-0.1-0.5-0.2-0.8C0,101.1,0,59,0,17c0.1-0.6,0.3-1.1,0.4-1.7C1.6,7.8,7.5,1.8,15,0.4c0.7-0.1,1.3-0.2,2-0.4h126.1
	c0.7,0.1,1.4,0.2,2.1,0.4c7.3,1.4,13.1,7.2,14.6,14.5c0.1,0.5,0.2,0.9,0.2,1.4v127.6c-0.1,0.3-0.1,0.7-0.2,1
	c-1.3,7.2-7,13.2-14.2,14.7C145,159.8,144.5,159.9,143.9,160 M18.6,67.8v0.8c0,22.1,0,44.2,0,66.4c0,0.4,0,0.7,0,1.1
	c0.2,1.6,0.8,2.9,2.1,4c1.3,1.1,2.8,1.5,4.5,1.5c36.6,0,73.2,0,109.8,0c0.4,0,0.7,0,1.1,0c1.6-0.1,3-0.8,4-2
	c1.1-1.2,1.6-2.7,1.5-4.3c0-22.2,0-44.5,0-66.7c0-0.1,0-0.2,0-0.2c0-0.2,0-0.3,0-0.5h-13.8c2.6,10.1,2.1,20.1-1.6,29.8
	s-9.9,17.5-18.6,23.4c-15.5,10.5-35.7,11.2-51.9,1.8c-8.1-4.7-14.5-11.2-18.9-19.5c-6-11.3-7.3-23.1-4.3-35.5H18.6V67.8z M110.9,80
	c0-16.9-13.7-30.8-30.8-30.7c-17.3,0-30.7,14.1-30.7,30.7c0,17,13.9,30.8,30.7,30.8C96.8,110.8,110.8,97.3,110.9,80 M126.2,49.3
	c3.1,0,6.2,0,9.2,0c3.4,0,6.1-2.7,6.1-6.2c0-6.1,0-12.3,0-18.4c0-3.4-2.7-6.1-6.2-6.1c-6.1,0-12.3,0-18.4,0c-3.4,0-6.1,2.7-6.1,6.2
	c0,6.1,0,12.3,0,18.4c0,0.5,0.1,1,0.2,1.5c0.7,2.8,3.1,4.7,6,4.7C120.1,49.3,123.2,49.3,126.2,49.3"/>
<rect fill="none" width="160" height="160"/>
</svg>
